#Comment line ignore any data following # character 
#Hierarchical Translation and Rotation (.htr) file 
[Header]	
#Header keywords are followed by a single value 
FileType HTR		#Single word string
DataType HTRS		#Translation followed by rotation and scale data
FileVersion 1		#integer
NumSegments 84		#integer
NumFrames 2		#integer
DataFrameRate 30		#integer, data frame rate in this file
EulerRotationOrder ZYX
CalibrationUnits mm
RotationUnits Degrees
GlobalAxisofGravity Y
BoneLengthAxis Y
ScaleFactor 1.00
[SegmentNames&Hierarchy]
#CHILD	PARENT
MASTER GLOBAL
root MASTER
chest root
L_mid_tent01 root
R_mid_tent01 root
spine01 root
Bip01_Neck chest
L_humerus chest
R_humerus chest
weapon_bone chest
Bip01_Head Bip01_Neck
eye_left_bone Bip01_Head
eye_right_bone Bip01_Head
L_forearm L_humerus
L_front_hand L_forearm
L_weapon_bone L_forearm
L_front_hand01_01 L_front_hand
L_front_hand02_01 L_front_hand
L_front_hand03_01 L_front_hand
L_front_hand01_02 L_front_hand01_01
L_front_hand02_02 L_front_hand02_01
L_front_hand03_02 L_front_hand03_01
R_forearm R_humerus
R_front_hand R_forearm
R_weapon_bone R_forearm
R_front_hand01_01 R_front_hand
R_front_hand02_01 R_front_hand
R_front_hand03_01 R_front_hand
R_front_hand01_02 R_front_hand01_01
R_front_hand02_02 R_front_hand02_01
R_front_hand03_02 R_front_hand03_01
null_rope01_connect L_mid_tent01
Rope1_Seg01 null_rope01_connect
Rope1_Seg02 Rope1_Seg01
Rope1_Seg03 Rope1_Seg02
Rope1_Seg04 Rope1_Seg03
Rope1_Seg05 Rope1_Seg04
Rope1_Seg06 Rope1_Seg05
Rope1_Seg07 Rope1_Seg06
Rope1_Seg09 Rope1_Seg07
L_mid_hand01 Rope1_Seg09
L_mid_hand02 Rope1_Seg09
L_mid_hand03 Rope1_Seg09
null_rope02_connect R_mid_tent01
Rope2_Seg01 null_rope02_connect
Rope2_Seg02 Rope2_Seg01
Rope2_Seg03 Rope2_Seg02
Rope2_Seg04 Rope2_Seg03
Rope2_Seg05 Rope2_Seg04
Rope2_Seg06 Rope2_Seg05
Rope2_Seg07 Rope2_Seg06
Rope2_Seg09 Rope2_Seg07
R_mid_hand01 Rope2_Seg09
R_mid_hand02 Rope2_Seg09
R_mid_hand03 Rope2_Seg09
spine02 spine01
spine03 spine02
pelvis spine03
null_rope03_connect pelvis
null_rope04_connect pelvis
Rope3_Seg01 null_rope03_connect
Rope3_Seg02 Rope3_Seg01
Rope3_Seg03 Rope3_Seg02
Rope3_Seg04 Rope3_Seg03
Rope3_Seg05 Rope3_Seg04
Rope3_Seg06 Rope3_Seg05
Rope3_Seg07 Rope3_Seg06
Rope3_Seg08 Rope3_Seg07
Rope3_Seg09 Rope3_Seg08
R_rear_hand01 Rope3_Seg09
R_rear_hand02 Rope3_Seg09
R_rear_hand03 Rope3_Seg09
Rope4_Seg01 null_rope04_connect
Rope4_Seg02 Rope4_Seg01
Rope4_Seg03 Rope4_Seg02
Rope4_Seg04 Rope4_Seg03
Rope4_Seg05 Rope4_Seg04
Rope4_Seg06 Rope4_Seg05
Rope4_Seg07 Rope4_Seg06
Rope4_Seg08 Rope4_Seg07
Rope4_Seg09 Rope4_Seg08
L_rear_hand01 Rope4_Seg09
L_rear_hand02 Rope4_Seg09
L_rear_hand03 Rope4_Seg09
[BasePosition]
#SegmentName Tx, Ty, Tz, Rx, Ry, Rz, BoneLength
MASTER 0.000000 0.000000 0.000000 -90.000000 0.000000 0.000000 10.000000 
root 0.000000 0.000000 0.000000 0.000000 0.000000 0.000000 10.000000 
chest 0.000000 0.000000 0.000000 0.000000 0.000000 0.000000 10.000000 
L_mid_tent01 0.000000 0.000000 0.000000 0.000000 0.000000 0.000000 10.000000 
R_mid_tent01 0.000000 0.000000 0.000000 0.000000 0.000000 0.000000 10.000000 
spine01 0.000000 0.000000 0.000000 0.000000 0.000000 0.000000 10.000000 
Bip01_Neck 0.000000 0.000000 0.000000 0.000000 0.000000 0.000000 10.000000 
L_humerus 0.000000 0.000000 0.000000 0.000000 0.000000 0.000000 10.000000 
R_humerus 0.000000 0.000000 0.000000 0.000000 0.000000 0.000000 10.000000 
weapon_bone 0.000000 0.000000 0.000000 0.000000 0.000000 0.000000 10.000000 
Bip01_Head 0.000000 0.000000 0.000000 0.000000 0.000000 0.000000 10.000000 
eye_left_bone 0.000000 0.000000 0.000000 0.000000 0.000000 0.000000 10.000000 
eye_right_bone 0.000000 0.000000 0.000000 0.000000 0.000000 0.000000 10.000000 
L_forearm 0.000000 0.000000 0.000000 0.000000 0.000000 0.000000 10.000000 
L_front_hand 0.000000 0.000000 0.000000 0.000000 0.000000 0.000000 10.000000 
L_weapon_bone 0.000000 0.000000 0.000000 0.000000 0.000000 0.000000 10.000000 
L_front_hand01_01 0.000000 0.000000 0.000000 0.000000 0.000000 0.000000 10.000000 
L_front_hand02_01 0.000000 0.000000 0.000000 0.000000 0.000000 0.000000 10.000000 
L_front_hand03_01 0.000000 0.000000 0.000000 0.000000 0.000000 0.000000 10.000000 
L_front_hand01_02 0.000000 0.000000 0.000000 0.000000 0.000000 0.000000 10.000000 
L_front_hand02_02 0.000000 0.000000 0.000000 0.000000 0.000000 0.000000 10.000000 
L_front_hand03_02 0.000000 0.000000 0.000000 0.000000 0.000000 0.000000 10.000000 
R_forearm 0.000000 0.000000 0.000000 0.000000 0.000000 0.000000 10.000000 
R_front_hand 0.000000 0.000000 0.000000 0.000000 0.000000 0.000000 10.000000 
R_weapon_bone 0.000000 0.000000 0.000000 0.000000 0.000000 0.000000 10.000000 
R_front_hand01_01 0.000000 0.000000 0.000000 0.000000 0.000000 0.000000 10.000000 
R_front_hand02_01 0.000000 0.000000 0.000000 0.000000 0.000000 0.000000 10.000000 
R_front_hand03_01 0.000000 0.000000 0.000000 0.000000 0.000000 0.000000 10.000000 
R_front_hand01_02 0.000000 0.000000 0.000000 0.000000 0.000000 0.000000 10.000000 
R_front_hand02_02 0.000000 0.000000 0.000000 0.000000 0.000000 0.000000 10.000000 
R_front_hand03_02 0.000000 0.000000 0.000000 0.000000 0.000000 0.000000 10.000000 
null_rope01_connect 0.000000 0.000000 0.000000 0.000000 0.000000 0.000000 10.000000 
Rope1_Seg01 0.000000 0.000000 0.000000 0.000000 0.000000 0.000000 10.000000 
Rope1_Seg02 0.000000 0.000000 0.000000 0.000000 0.000000 0.000000 10.000000 
Rope1_Seg03 0.000000 0.000000 0.000000 0.000000 0.000000 0.000000 10.000000 
Rope1_Seg04 0.000000 0.000000 0.000000 0.000000 0.000000 0.000000 10.000000 
Rope1_Seg05 0.000000 0.000000 0.000000 0.000000 0.000000 0.000000 10.000000 
Rope1_Seg06 0.000000 0.000000 0.000000 0.000000 0.000000 0.000000 10.000000 
Rope1_Seg07 0.000000 0.000000 0.000000 0.000000 0.000000 0.000000 10.000000 
Rope1_Seg09 0.000000 0.000000 0.000000 0.000000 0.000000 0.000000 10.000000 
L_mid_hand01 0.000000 0.000000 0.000000 0.000000 0.000000 0.000000 10.000000 
L_mid_hand02 0.000000 0.000000 0.000000 0.000000 0.000000 0.000000 10.000000 
L_mid_hand03 0.000000 0.000000 0.000000 0.000000 0.000000 0.000000 10.000000 
null_rope02_connect 0.000000 0.000000 0.000000 0.000000 0.000000 0.000000 10.000000 
Rope2_Seg01 0.000000 0.000000 0.000000 0.000000 0.000000 0.000000 10.000000 
Rope2_Seg02 0.000000 0.000000 0.000000 0.000000 0.000000 0.000000 10.000000 
Rope2_Seg03 0.000000 0.000000 0.000000 0.000000 0.000000 0.000000 10.000000 
Rope2_Seg04 0.000000 0.000000 0.000000 0.000000 0.000000 0.000000 10.000000 
Rope2_Seg05 0.000000 0.000000 0.000000 0.000000 0.000000 0.000000 10.000000 
Rope2_Seg06 0.000000 0.000000 0.000000 0.000000 0.000000 0.000000 10.000000 
Rope2_Seg07 0.000000 0.000000 0.000000 0.000000 0.000000 0.000000 10.000000 
Rope2_Seg09 0.000000 0.000000 0.000000 0.000000 0.000000 0.000000 10.000000 
R_mid_hand01 0.000000 0.000000 0.000000 0.000000 0.000000 0.000000 10.000000 
R_mid_hand02 0.000000 0.000000 0.000000 0.000000 0.000000 0.000000 10.000000 
R_mid_hand03 0.000000 0.000000 0.000000 0.000000 0.000000 0.000000 10.000000 
spine02 0.000000 0.000000 0.000000 0.000000 0.000000 0.000000 10.000000 
spine03 0.000000 0.000000 0.000000 0.000000 0.000000 0.000000 10.000000 
pelvis 0.000000 0.000000 0.000000 0.000000 0.000000 0.000000 10.000000 
null_rope03_connect 0.000000 0.000000 0.000000 0.000000 0.000000 0.000000 10.000000 
null_rope04_connect 0.000000 0.000000 0.000000 0.000000 0.000000 0.000000 10.000000 
Rope3_Seg01 0.000000 0.000000 0.000000 0.000000 0.000000 0.000000 10.000000 
Rope3_Seg02 0.000000 0.000000 0.000000 0.000000 0.000000 0.000000 10.000000 
Rope3_Seg03 0.000000 0.000000 0.000000 0.000000 0.000000 0.000000 10.000000 
Rope3_Seg04 0.000000 0.000000 0.000000 0.000000 0.000000 0.000000 10.000000 
Rope3_Seg05 0.000000 0.000000 0.000000 0.000000 0.000000 0.000000 10.000000 
Rope3_Seg06 0.000000 0.000000 0.000000 0.000000 0.000000 0.000000 10.000000 
Rope3_Seg07 0.000000 0.000000 0.000000 0.000000 0.000000 0.000000 10.000000 
Rope3_Seg08 0.000000 0.000000 0.000000 0.000000 0.000000 0.000000 10.000000 
Rope3_Seg09 0.000000 0.000000 0.000000 0.000000 0.000000 0.000000 10.000000 
R_rear_hand01 0.000000 0.000000 0.000000 0.000000 0.000000 0.000000 10.000000 
R_rear_hand02 0.000000 0.000000 0.000000 0.000000 0.000000 0.000000 10.000000 
R_rear_hand03 0.000000 0.000000 0.000000 0.000000 0.000000 0.000000 10.000000 
Rope4_Seg01 0.000000 0.000000 0.000000 0.000000 0.000000 0.000000 10.000000 
Rope4_Seg02 0.000000 0.000000 0.000000 0.000000 0.000000 0.000000 10.000000 
Rope4_Seg03 0.000000 0.000000 0.000000 0.000000 0.000000 0.000000 10.000000 
Rope4_Seg04 0.000000 0.000000 0.000000 0.000000 0.000000 0.000000 10.000000 
Rope4_Seg05 0.000000 0.000000 0.000000 0.000000 0.000000 0.000000 10.000000 
Rope4_Seg06 0.000000 0.000000 0.000000 0.000000 0.000000 0.000000 10.000000 
Rope4_Seg07 0.000000 0.000000 0.000000 0.000000 0.000000 0.000000 10.000000 
Rope4_Seg08 0.000000 0.000000 0.000000 0.000000 0.000000 0.000000 10.000000 
Rope4_Seg09 0.000000 0.000000 0.000000 0.000000 0.000000 0.000000 10.000000 
L_rear_hand01 0.000000 0.000000 0.000000 0.000000 0.000000 0.000000 10.000000 
L_rear_hand02 0.000000 0.000000 0.000000 0.000000 0.000000 0.000000 10.000000 
L_rear_hand03 0.000000 0.000000 0.000000 0.000000 0.000000 0.000000 10.000000 
#Beginning of Data. Separated by tabs
#Fr	Tx	Ty	Tz	Rx	Ry	Rz	SF
[MASTER]
5 961.618591 1059.468628 -457.245453 0.001660 0.001660 0.001660 1502.084351
6 1135.377686 1231.262085 -571.871765 0.001660 0.001660 0.001660 1769.781372
[root]
5 113.685989 -248.837891 558.677856 -175.264297 -1.657480 -78.593643 622.065735
6 102.422531 -233.978592 589.939941 -172.882095 -2.377104 -80.226723 642.857300
[chest]
5 -84.512650 -34.090519 0.000000 -73.552078 -28.445690 -161.294769 91.129311
6 -84.512650 -34.090519 0.000000 -69.291977 -27.181067 -164.114685 91.129311
[L_mid_tent01]
5 27.299009 22.179249 -249.918823 -2.698447 14.418205 67.104736 252.381790
6 27.299000 22.179241 -249.918823 -3.375035 11.269280 63.694336 252.381790
[R_mid_tent01]
5 23.228794 24.509907 226.238495 163.782181 16.007235 65.697166 228.744751
6 23.228794 24.509907 226.238495 162.316833 31.243464 63.521172 228.744751
[spine01]
5 -0.361383 -0.195265 0.000000 -0.000001 -0.000007 22.052340 0.410763
6 -0.361383 -0.195265 0.000000 -0.000001 -0.000007 22.052340 0.410763
[Bip01_Neck]
5 165.484543 71.581718 0.000119 176.643677 -1.657967 43.431911 180.302734
6 165.484543 71.581718 0.000119 176.643677 -1.657967 43.431911 180.302734
[L_humerus]
5 -13.983130 -135.272980 -120.471481 154.467438 68.950417 -113.646584 181.680161
6 -13.983130 -135.272980 -120.471481 155.094635 68.303139 -113.010872 181.680161
[R_humerus]
5 -13.983309 -135.273102 125.287651 -106.458435 -69.098839 -155.740997 184.909012
6 -13.983309 -135.273102 125.287651 -115.178207 -69.478317 -147.324188 184.909012
[weapon_bone]
5 235.964890 -300.705902 0.000000 0.000000 -89.951546 -128.212341 382.234833
6 235.964890 -300.705902 0.000000 0.000000 -89.951546 -128.212341 382.234833
[Bip01_Head]
5 213.345261 185.991302 8.217686 9.472488 6.148817 -43.832676 283.154541
6 213.353424 185.968536 8.511431 11.071908 6.148489 -43.832245 283.154419
[eye_left_bone]
5 -24.626970 125.451866 -64.772606 0.000000 -90.000000 -99.840431 143.318359
6 -24.626970 125.451866 -64.772606 0.000000 -90.000000 -99.840431 143.318359
[eye_right_bone]
5 -24.626970 125.451866 64.327362 0.000000 -89.980217 80.156380 143.117676
6 -24.626970 125.451866 64.327362 0.000000 -89.965736 80.156380 143.117676
[L_forearm]
5 322.776093 0.000000 -0.000119 0.000296 -0.002329 -104.470543 322.776093
6 322.776093 0.000000 -0.000119 0.000303 -0.002328 -104.830299 322.776093
[L_front_hand]
5 241.149185 -0.042021 -3.300071 -105.490540 -1.835781 -27.423635 241.171753
6 241.149185 -0.042021 -3.300071 -105.490540 -1.835781 -27.423635 241.171753
[L_weapon_bone]
5 156.183838 0.000000 0.000000 0.000014 0.000007 0.000001 156.183838
6 156.183838 0.000000 0.000000 0.000014 0.000007 0.000001 156.183838
[L_front_hand01_01]
5 86.095154 20.947098 -0.655860 -0.366594 -0.477154 75.385574 88.609184
6 86.095154 20.947098 -0.655860 -0.366594 -0.477154 75.385574 88.609184
[L_front_hand02_01]
5 86.935165 -11.437475 24.513514 154.399796 -59.883835 -61.369587 91.046425
6 86.935165 -11.437475 24.513514 154.399796 -59.883835 -61.369587 91.046425
[L_front_hand03_01]
5 86.637497 -14.123976 -20.424902 -153.913879 58.118130 -62.702892 90.126129
6 86.637497 -14.123976 -20.424902 -153.913849 58.118130 -62.702866 90.126129
[L_front_hand01_02]
5 71.020905 -0.000179 0.000030 0.000334 -0.002323 -106.379684 71.020905
6 71.020905 -0.000179 0.000030 0.000334 -0.002323 -106.379684 71.020905
[L_front_hand02_02]
5 71.020927 -0.000119 0.000060 0.000334 -0.002323 -106.379684 71.020927
6 71.020927 -0.000119 0.000060 0.000334 -0.002323 -106.379684 71.020927
[L_front_hand03_02]
5 71.020905 -0.000060 0.000060 0.000334 -0.002323 -106.379684 71.020905
6 71.020905 -0.000060 0.000060 0.000334 -0.002323 -106.379684 71.020905
[R_forearm]
5 322.776428 -0.000060 0.000030 0.207894 0.044345 -103.074570 322.776428
6 322.776428 -0.000060 0.000030 0.208134 0.045489 -103.437790 322.776428
[R_front_hand]
5 238.847015 -0.006795 2.210259 -2.635298 -10.645461 -26.312506 238.857239
6 238.847015 -0.006795 2.210259 -2.635298 -10.645461 -26.312506 238.857239
[R_weapon_bone]
5 155.664093 0.002503 -0.000030 0.003487 0.001180 -90.988930 155.664078
6 155.664093 0.002503 -0.000030 0.003487 0.001180 -90.988930 155.664078
[R_front_hand01_01]
5 87.624611 14.231146 22.918642 -154.633499 -59.950634 61.746063 91.683487
6 87.624611 14.231146 22.918642 -154.633499 -59.950619 61.746044 91.683487
[R_front_hand02_01]
5 89.356956 14.367283 -19.491137 154.602676 58.302864 63.744400 92.579636
6 89.356956 14.367283 -19.491137 154.602661 58.302849 63.744389 92.579636
[R_front_hand03_01]
5 87.286232 -22.307278 -0.143439 0.162155 -0.423168 -75.767921 90.091743
6 87.286232 -22.307278 -0.143439 0.162155 -0.423168 -75.767921 90.091743
[R_front_hand01_02]
5 71.020905 0.000060 0.000119 0.002323 -0.000334 106.381714 71.020905
6 71.020905 0.000060 0.000119 0.002323 -0.000334 106.381714 71.020905
[R_front_hand02_02]
5 71.020844 -0.000030 -0.000119 0.002323 -0.000334 106.381714 71.020836
6 71.020844 -0.000030 -0.000119 0.002323 -0.000334 106.381714 71.020836
[R_front_hand03_02]
5 71.020905 0.000000 0.000030 0.002323 -0.000334 106.381714 71.020905
6 71.020905 0.000000 0.000030 0.002323 -0.000334 106.381714 71.020905
[null_rope01_connect]
5 328.732483 0.000000 -0.000238 -173.424301 8.470412 -145.819016 328.732483
6 328.732483 0.000000 -0.000238 -174.989166 3.683286 -144.310959 328.732483
[Rope1_Seg01]
5 -0.000023 -0.000094 0.000000 -106.466774 -35.187408 -125.537239 0.000097
6 -0.000024 -0.000108 0.000000 -41.128872 -25.702742 -140.564636 0.000111
[Rope1_Seg02]
5 139.999863 -0.000179 0.000000 52.284245 14.018214 10.310723 139.999863
6 139.999863 -0.000179 0.000000 38.062538 13.642357 9.477153 139.999863
[Rope1_Seg03]
5 139.999924 0.000060 -0.000060 16.073002 12.392810 -0.000143 139.999924
6 139.999924 0.000060 -0.000060 6.718470 6.635514 -1.285784 139.999924
[Rope1_Seg04]
5 139.999924 -0.000060 -0.000119 -9.750952 -0.965506 -10.259721 139.999924
6 139.999924 -0.000060 -0.000119 -36.492622 -21.311575 -10.190111 139.999924
[Rope1_Seg05]
5 139.999832 0.000119 -0.000060 -5.458164 -1.468831 -5.778826 139.999832
6 139.999832 0.000119 -0.000060 -11.555762 -4.262801 -8.095714 139.999832
[Rope1_Seg06]
5 139.999954 0.000119 -0.000060 -1.342536 0.194104 -2.152264 139.999954
6 139.999954 0.000119 -0.000060 -3.605901 -0.842420 -3.381685 139.999954
[Rope1_Seg07]
5 139.999985 0.000060 0.000000 -0.776711 0.155700 -1.354576 139.999985
6 139.999985 0.000060 0.000000 -2.039008 -0.392608 -2.138259 139.999985
[Rope1_Seg09]
5 121.602913 0.000119 -0.000089 -89.793175 -1.359789 0.847147 121.602913
6 121.602913 0.000119 -0.000089 -89.793175 -1.359789 0.847147 121.602913
[L_mid_hand01]
5 103.859421 1.038730 8.195221 130.544388 -67.584549 -38.866955 104.187431
6 103.859421 1.038730 8.195221 130.544373 -67.584534 -38.866943 104.187431
[L_mid_hand02]
5 105.572853 -4.139662 -10.864139 -168.923172 43.409321 -73.498909 106.211075
6 105.572853 -4.139662 -10.864139 -168.923172 43.409309 -73.498894 106.211075
[L_mid_hand03]
5 104.641464 17.579376 -3.913581 -6.012629 17.808178 74.893669 106.179977
6 104.641464 17.579376 -3.913581 -6.012627 17.808174 74.893669 106.179977
[null_rope02_connect]
5 328.732849 0.000179 -0.000119 -3.633470 -17.257238 147.016785 328.732849
6 328.732849 0.000179 -0.000119 4.248546 -27.913296 148.070190 328.732849
[Rope2_Seg01]
5 0.000000 0.000086 -0.000060 -43.849430 -6.308170 -152.932297 0.000105
6 0.000000 0.000060 -0.000056 -44.153648 -17.134619 -144.630875 0.000082
[Rope2_Seg02]
5 139.999741 -0.000060 -0.000119 3.977347 -23.060987 -8.335575 139.999756
6 139.999741 -0.000060 -0.000119 -0.031717 -11.958880 0.223807 139.999756
[Rope2_Seg03]
5 140.000107 0.000030 0.000000 -0.382152 -12.117105 -6.232476 140.000107
6 140.000107 0.000030 0.000000 -1.202604 -12.680043 -3.229201 140.000107
[Rope2_Seg04]
5 139.999802 0.000000 -0.000060 2.256345 7.986645 9.123716 139.999802
6 139.999802 0.000000 -0.000060 0.805095 1.250875 2.449055 139.999802
[Rope2_Seg05]
5 139.999985 -0.000060 0.000119 2.742950 16.302942 15.455665 139.999985
6 139.999985 -0.000060 0.000119 3.290227 12.935774 7.914005 139.999985
[Rope2_Seg06]
5 139.999893 -0.000030 -0.000119 -0.413714 7.389679 6.937480 139.999893
6 139.999893 -0.000030 -0.000119 0.886830 9.473289 5.163649 139.999893
[Rope2_Seg07]
5 139.999893 0.000060 -0.000060 -0.615231 3.822989 3.767430 139.999893
6 139.999893 0.000060 -0.000060 -0.055318 4.287777 2.444650 139.999893
[Rope2_Seg09]
5 121.338966 0.000089 -0.000060 33.793236 -1.359788 -0.847141 121.338966
6 121.338966 0.000089 -0.000060 33.793236 -1.359788 -0.847141 121.338966
[R_mid_hand01]
5 104.680779 11.144459 -10.335981 -16.212059 45.237240 70.462852 105.778534
6 104.680779 11.144459 -10.335981 -16.212059 45.237240 70.462852 105.778534
[R_mid_hand02]
5 104.070427 2.443552 8.231699 49.067368 -67.749771 39.286453 104.424065
6 104.070427 2.443552 8.231699 49.067368 -67.749771 39.286453 104.424065
[R_mid_hand03]
5 106.028137 -11.221827 -5.996406 -177.101105 15.551029 -76.585594 106.788818
6 106.028137 -11.221827 -5.996406 -177.101105 15.551026 -76.585571 106.788818
[spine02]
5 129.756927 0.001550 0.000119 -0.146659 -4.058456 -5.759512 129.756927
6 129.756927 0.001550 0.000119 -0.109716 -4.059402 -6.281806 129.756927
[spine03]
5 78.614090 0.081114 -4.899049 1.591433 3.968281 12.016568 78.766632
6 78.614098 0.081150 -4.899055 1.613932 3.958804 12.340687 78.766640
[pelvis]
5 169.435242 0.051022 0.000000 -0.032223 -0.190023 5.073709 169.435257
6 169.435242 0.051022 0.000000 -0.034726 -0.189757 5.732166 169.435257
[null_rope03_connect]
5 -1.257226 -2.466202 137.391083 -179.290009 -5.580897 -112.262756 137.418976
6 -1.257226 -2.466202 137.391083 -178.834488 -8.067920 -114.293190 137.418976
[null_rope04_connect]
5 -1.259640 -2.480268 -137.844437 -179.290009 -5.580897 -112.262756 137.872513
6 -1.259640 -2.480268 -137.844437 -178.834488 -8.067920 -114.293190 137.872513
[Rope3_Seg01]
5 0.000000 0.000000 0.000000 35.550014 -30.368530 -111.955345 0.000000
6 0.000000 0.000000 0.000000 34.096279 -30.146969 -109.492493 0.000000
[Rope3_Seg02]
5 139.999924 -0.000119 0.000060 -18.842268 8.105061 -19.620129 139.999924
6 139.999924 -0.000119 0.000060 -17.982611 10.835853 -18.291176 139.999924
[Rope3_Seg03]
5 139.999924 -0.000119 0.000119 -21.716227 17.532505 -11.083149 139.999924
6 139.999924 -0.000119 0.000119 -19.561699 22.951326 -9.295521 139.999924
[Rope3_Seg04]
5 139.999924 0.000119 0.000000 -9.198851 1.465385 -12.026767 139.999924
6 139.999924 0.000119 0.000000 -4.159870 -2.202284 -12.645843 139.999924
[Rope3_Seg05]
5 139.999924 -0.000238 0.000060 -1.969941 -4.337828 -9.284605 139.999924
6 139.999924 -0.000238 0.000060 5.956776 -11.785113 -13.485539 139.999924
[Rope3_Seg06]
5 139.999893 -0.000119 -0.000060 -2.249890 -0.521685 -3.213763 139.999893
6 139.999893 -0.000119 -0.000060 1.813331 -3.508956 -4.340398 139.999893
[Rope3_Seg07]
5 139.999771 0.000060 -0.000119 -1.648258 -0.130568 -1.970095 139.999771
6 139.999771 0.000060 -0.000119 1.181789 -1.941744 -2.486940 139.999771
[Rope3_Seg08]
5 139.999985 -0.000060 0.000000 -0.922798 -0.042588 -1.194912 139.999985
6 139.999985 -0.000060 0.000000 1.035633 -1.182229 -1.453338 139.999985
[Rope3_Seg09]
5 90.185997 -0.000179 -0.000060 89.793228 -1.359877 -0.847183 90.185997
6 90.185997 -0.000179 -0.000060 89.793228 -1.359877 -0.847183 90.185997
[R_rear_hand01]
5 103.366196 -6.073594 -10.757982 172.856537 -15.220671 -75.434441 104.101845
6 103.366196 -6.073594 -10.757982 172.856537 -15.220671 -75.434441 104.101845
[R_rear_hand02]
5 100.509819 12.039542 -7.992327 -12.874834 36.868492 72.167213 101.543350
6 100.509819 12.039542 -7.992327 -12.874829 36.868488 72.167213 101.543350
[R_rear_hand03]
5 101.539970 5.215704 5.435467 71.484581 -71.816628 21.513813 101.819031
6 101.539970 5.215704 5.435467 71.484581 -71.816628 21.513813 101.819031
[Rope4_Seg01]
5 -0.000092 -0.000030 -0.000074 -97.241135 -24.813812 -109.286369 0.000122
6 -0.000096 -0.000028 -0.000074 -115.161156 -20.456097 -50.256397 0.000125
[Rope4_Seg02]
5 139.999985 0.000060 0.000119 1.747124 20.503263 5.723172 139.999985
6 139.999985 0.000060 0.000119 30.449936 69.610336 47.317501 139.999985
[Rope4_Seg03]
5 139.999924 0.000000 -0.000238 0.651046 9.655605 3.923859 139.999924
6 139.999924 0.000000 -0.000238 1.818677 19.744606 9.349773 139.999924
[Rope4_Seg04]
5 139.999985 0.000000 0.000119 2.450764 3.988519 -2.452449 139.999985
6 139.999985 0.000000 0.000119 3.411953 2.194040 -2.813462 139.999985
[Rope4_Seg05]
5 139.999802 -0.000060 -0.000119 2.243665 1.030282 -3.248465 139.999802
6 139.999802 -0.000060 -0.000119 4.736822 -2.072256 -6.677094 139.999802
[Rope4_Seg06]
5 139.999924 0.000000 0.000060 1.046114 0.858531 -1.212196 139.999924
6 139.999924 0.000000 0.000060 3.134993 -2.117492 -5.273695 139.999924
[Rope4_Seg07]
5 139.999802 0.000000 0.000000 0.768995 0.620191 -0.780580 139.999802
6 139.999802 0.000000 0.000000 1.607487 -0.565480 -2.598332 139.999802
[Rope4_Seg08]
5 139.999924 0.000000 0.000119 -1.048540 0.387845 -0.496481 139.999924
6 139.999924 0.000000 0.000119 -0.536030 -0.426815 -1.717543 139.999924
[Rope4_Seg09]
5 90.185791 0.000060 0.000060 -135.617828 2.228885 0.850567 90.185791
6 90.185791 0.000060 0.000060 -135.617828 2.228885 0.850567 90.185791
[L_rear_hand01]
5 101.696655 -8.392275 -7.654577 -12.874834 -36.868492 107.832779 102.329041
6 101.696655 -8.392275 -7.654577 -12.874829 -36.868488 107.832764 102.329041
[L_rear_hand02]
5 102.726799 -1.568258 5.773216 71.484581 71.816628 158.486160 102.900848
6 102.726799 -1.568258 5.773216 71.484581 71.816628 158.486160 102.900848
[L_rear_hand03]
5 104.552910 9.721220 -10.420293 -177.714203 -24.565960 -106.089035 105.519653
6 104.552910 9.721220 -10.420293 -177.714203 -24.565960 -106.089035 105.519653
